<svg xmlns="http://www.w3.org/2000/svg" viewBox="0 0 1681 721" width="1681" height="721">
	<defs>
		<linearGradient id="grd1" gradientUnits="userSpaceOnUse"  x1="606.587" y1="588.968" x2="54.222" y2="588.968">
			<stop offset="0" stop-color="#233c82"  />
			<stop offset="0.932" stop-color="#ffffff"  />
			<stop offset="1" stop-color="#ffffff"  />
		</linearGradient>
	</defs>
	<style>
		tspan { white-space:pre }
		.shp0 { fill: #233c82 } 
		.shp1 { fill: #e30613 } 
		.shp2 { fill: url(#grd1) } 
	</style>
	<path id="Path 1" class="shp0" d="M1467.81,462.79h180.69l-25.89,54.6h-47.91l5.34,-11.55h-13.26l-49.59,104.46h13.41l-20.43,43.08h-84.93l20.49,-43.08h12.72l49.59,-104.46h-12.78l-5.52,11.55h-47.88zM1407.35,542.18l-20.01,12.57l8.22,12.24l-20.55,43.32h12.93l-20.4,43.05h-71.7l33.63,-70.86l-3.63,-6.3h-29.13l-16.23,34.11h12.75l-20.37,43.05h-84.27l20.37,-43.05h12.78l49.62,-104.49h-12.84l20.46,-43.02h132.15l19.41,30.6zM1362.92,512.03l-3.75,-6.21h-29.04l-12.96,27.33h29.07l9.6,-6.21zM1246.45,493.39l-61.41,129.39l-48.75,30.6h-93.72l-19.77,-30.6l61.47,-129.39l48.72,-30.6h93.78zM1178.8,512.11l-4.02,-6.27h-30.72l-9.93,6.27l-43.68,91.95l4.02,6.24h30.75l9.93,-6.24zM1062.12,493.31l-27.24,57.39l-48.24,30.21h-60.63l-13.95,29.4h12.75l-20.46,43.05h-84.3l20.49,-43.05h12.78l49.56,-104.49h-12.78l20.43,-43.02h132.12zM994.47,512.03l-3.72,-6.21h-29.1l-15.21,32.04h29.13l9.42,-5.88zM872.08,490.01h-64.86l12.87,-24.99l-3.21,-8.07h-34.77l-11.82,8.49l-13.02,25.59l3.72,7.5h69.24l17.07,40.17l-37.38,73.65l-58.35,41.01h-104.25l-17.19,-39.51l3.39,-6.69l21.39,-42.54h65.07l-12.12,23.79l3.45,8.01h34.77l11.4,-8.1l12.42,-24.45l-3.18,-7.89h-69.72l-17.31,-39.78l38.01,-74.82l58.44,-41.55h104.25l17.04,40.05z" />
	<path id="Path 2" class="shp1" d="M1183.05,264.87c-4.44,88.5 66.36,90.72 79.62,78.9c8.85,-3.69 25.83,-20.64 30.24,-25.8c4.44,-5.16 9.57,-5.16 9.57,-5.16h17.73c0,0 27.27,51.6 30.21,56.76c2.97,5.16 2.97,6.66 0,15.48c-9.57,24.36 -73.71,83.34 -162.96,61.23c-89.22,-22.14 -120.18,-115.02 -106.17,-210.15c16.53,-112.23 98.79,-175.5 174.03,-175.5c75.21,0 104.7,39.81 115.02,50.13c10.32,10.32 6.63,20.64 6.63,20.64l-44.97,74.49h-17.7c-28.74,-43.5 -53.82,-38.34 -53.82,-38.34c0,0 -69.33,0 -77.43,97.32zM616.75,441.83h-108.39l-28.02,-118.71c0,0 -2.22,-8.85 -12.54,-8.85c-10.32,0 -12.54,11.07 -12.54,11.07l-8.85,117.24h-112.05l42.99,-372.63c0,0 170.1,0.27 178.2,0.27c8.13,0 83.31,0 83.31,102.48c0,102.51 -61.92,125.34 -61.92,125.34zM497.29,146.15h-25.8l-8.1,98.1h31.68c0,0 33.93,-2.97 36.15,-45c2.22,-42.03 -25.08,-53.1 -33.93,-53.1zM947.81,73.15h95.88l-34.65,368.7h-98.82l9.6,-140.1l-36.6,78.09h-81.96l-22.29,-69.99l-7.71,68.97l-6.72,4.71l-58.44,41.55l-4.02,2.85l-2.22,4.41l-4.83,9.51h-28.14l41.28,-369.42h92.91l54.57,178.44z" />
	<path id="Path 3" class="shp2" d="M27.82,564.57v48.81h580.32l-0.09,-0.15l4.23,-8.37l3.36,-6.72l16.92,-33.57z" />
</svg>